<?xml version="1.0" encoding="utf-8"?>
<!-- Generator: Adobe Illustrator 18.0.0, SVG Export Plug-In . SVG Version: 6.00 Build 0)  -->
<!DOCTYPE svg PUBLIC "-//W3C//DTD SVG 1.1//EN" "http://www.w3.org/Graphics/SVG/1.1/DTD/svg11.dtd">
<svg version="1.1" id="Layer_1" xmlns="http://www.w3.org/2000/svg" xmlns:xlink="http://www.w3.org/1999/xlink" x="0px" y="0px"
	 viewBox="0 0 322.4 45.1" enable-background="new 0 0 322.4 45.1" xml:space="preserve">
<g>
	<g>
		<path fill="#333333" d="M194.2,27.7c-1.5,0.7-3.1,1-4.6,1c-2.9,0-5.1-0.8-6.5-2.5c-1.5-1.6-2.2-4.1-2.2-7.3c0-3.2,0.8-5.6,2.3-7.3
			s3.7-2.5,6.6-2.5c1.5,0,3,0.3,4.3,0.9v1.7c-1.4-0.4-2.8-0.7-4.2-0.7c-2.4,0-4.1,0.6-5.1,1.8c-1.1,1.2-1.6,3.1-1.6,5.8v0.4
			c0,2.6,0.5,4.5,1.6,5.7c1.1,1.2,2.7,1.8,5,1.8c1.4,0,2.9-0.3,4.5-0.8V27.7z"/>
		<path fill="#333333" d="M204.4,28.9c-2.7,0-4.8-0.9-6.4-2.6s-2.3-4.2-2.3-7.3s0.8-5.6,2.3-7.3c1.5-1.7,3.6-2.6,6.4-2.6
			s4.8,0.9,6.4,2.6c1.5,1.7,2.3,4.2,2.3,7.3s-0.8,5.6-2.3,7.3C209.3,28.1,207.2,28.9,204.4,28.9z M204.4,27c4.3,0,6.4-2.7,6.4-8
			c0-5.3-2.1-8-6.4-8c-4.3,0-6.4,2.7-6.4,8C198,24.3,200.2,27,204.4,27z"/>
		<path fill="#333333" d="M241.5,28.4V15.7c0-1.6-0.3-2.8-0.9-3.5c-0.6-0.7-1.5-1.1-2.7-1.1c-2.4,0-4.6,0.8-6.7,2.3
			c0.1,0.6,0.1,1.2,0.1,1.7v13.2h-2.1V15.7c0-1.6-0.3-2.8-0.9-3.5c-0.6-0.7-1.5-1.1-2.7-1.1c-2.3,0-4.5,0.8-6.6,2.3v15.1h-2.1V9.7
			h1.9l0.2,2c1.1-0.8,2.3-1.5,3.5-1.9c1.2-0.4,2.4-0.7,3.6-0.7c2.3,0,3.9,1,4.7,2.9c1.2-0.9,2.4-1.6,3.7-2.1
			c1.3-0.5,2.6-0.7,3.9-0.7c1.7,0,3,0.5,3.9,1.4c0.9,1,1.3,2.4,1.3,4.2v13.6H241.5z"/>
		<path fill="#333333" d="M247.9,36V9.7h1.9l0.2,2.1c1.1-0.9,2.2-1.6,3.3-2c1.1-0.4,2.2-0.6,3.3-0.6c2.4,0,4.3,0.9,5.7,2.6
			c1.4,1.7,2.1,4.1,2.1,7.1c0,3-0.7,5.5-2.2,7.3c-1.5,1.8-3.4,2.7-5.9,2.7c-2.3,0-4.4-0.8-6.2-2.5V36H247.9z M256.2,11.1
			c-2.1,0-4.1,0.8-6.2,2.4v10.9c1,0.9,2,1.5,3,1.9c1,0.4,2,0.6,3,0.6c2,0,3.6-0.7,4.6-2c1-1.3,1.5-3.3,1.5-5.9
			C262.2,13.7,260.2,11.1,256.2,11.1z"/>
		<path fill="#333333" d="M279.3,28.4l-0.2-2.2c-2.1,1.7-4.4,2.6-6.7,2.6c-1.7,0-3.1-0.5-4.1-1.5c-1-1-1.5-2.3-1.5-3.9
			c0-1.8,0.6-3.2,1.9-4.3c1.2-1,2.9-1.6,5.1-1.6c1.7,0,3.4,0.3,5.3,0.9v-3.1c0-1.5-0.4-2.6-1.1-3.3c-0.7-0.7-1.9-1-3.6-1
			c-2,0-4.1,0.4-6.4,1.2v-1.7c0.9-0.4,2-0.8,3.2-1c1.2-0.2,2.4-0.4,3.5-0.4c2.2,0,3.8,0.5,4.9,1.4c1.1,0.9,1.6,2.3,1.6,4.2v13.7
			H279.3z M272.7,26.9c0.9,0,2-0.2,3-0.6c1.1-0.4,2.2-0.9,3.3-1.6V20c-1.7-0.4-3.3-0.7-4.8-0.7c-3.5,0-5.2,1.3-5.2,4
			c0,1.1,0.3,2,0.9,2.6C270.6,26.6,271.5,26.9,272.7,26.9z"/>
		<path fill="#333333" d="M299.3,28.4V15.7c0-1.6-0.3-2.8-0.9-3.5c-0.6-0.7-1.6-1.1-3-1.1c-2.5,0-4.9,0.8-7.2,2.4v14.9h-2.1V9.7h1.9
			l0.2,2.2c1.2-0.9,2.5-1.5,3.8-2c1.3-0.5,2.6-0.7,3.9-0.7c1.8,0,3.2,0.5,4.1,1.4c1,1,1.4,2.4,1.4,4.2v13.6H299.3z"/>
		<path fill="#333333" d="M311.3,28.6l-7.7-18.9h2.3l6.4,16.5l6.4-16.5h2.2l-9.1,22.6c-0.6,1.5-1.3,2.6-2,3.2
			c-0.8,0.6-1.8,0.9-3,0.9c-0.8,0-1.6-0.1-2.3-0.4v-1.7c0.6,0.1,1.4,0.2,2.1,0.2c0.8,0,1.5-0.2,2-0.6c0.5-0.4,0.9-1.2,1.4-2.3
			L311.3,28.6z"/>
	</g>
	<g>
		<path fill="#333333" d="M22.5,28.4l-2.9-7.7H7.7l-2.9,7.7H2.6l9.9-25.8h2.3l9.9,25.8H22.5z M8.4,18.8h10.5L13.6,4.9L8.4,18.8z"/>
		<path fill="#333333" d="M40.4,28.4V15.7c0-1.6-0.3-2.8-0.9-3.5c-0.6-0.7-1.6-1.1-3-1.1c-2.5,0-4.9,0.8-7.2,2.4v14.9h-2.1V9.7h1.9
			l0.2,2.2c1.2-0.9,2.5-1.5,3.8-2c1.3-0.5,2.6-0.7,3.9-0.7c1.8,0,3.2,0.5,4.1,1.4c1,1,1.4,2.4,1.4,4.2v13.6H40.4z"/>
	</g>
	<g>
		<path fill-rule="evenodd" clip-rule="evenodd" fill="#FEBE10" d="M124.9,36.2c-6.6,4.9-16.2,7.5-24.5,7.5
			c-11.6,0-22-4.3-29.9-11.4c-0.6-0.6-0.1-1.3,0.7-0.9c8.5,5,19,7.9,29.9,7.9c7.3,0,15.4-1.5,22.8-4.7
			C125.1,34.2,126,35.4,124.9,36.2"/>
		<path fill-rule="evenodd" clip-rule="evenodd" fill="#FEBE10" d="M127.7,33.1c-0.8-1.1-5.6-0.5-7.7-0.3c-0.6,0.1-0.7-0.5-0.2-0.9
			c3.8-2.7,10-1.9,10.7-1c0.7,0.9-0.2,7.1-3.7,10.1c-0.5,0.5-1.1,0.2-0.8-0.4C126.7,38.6,128.5,34.1,127.7,33.1"/>
		<path fill-rule="evenodd" clip-rule="evenodd" fill="#333333" d="M120.1,13.1v-2.6c0-0.4,0.3-0.7,0.7-0.7l11.6,0
			c0.4,0,0.7,0.3,0.7,0.7l0,2.2c0,0.4-0.3,0.9-0.9,1.6l-6,8.6c2.2-0.1,4.6,0.3,6.6,1.4c0.5,0.3,0.6,0.6,0.6,1v2.8
			c0,0.4-0.4,0.8-0.9,0.6c-3.6-1.9-8.3-2.1-12.2,0c-0.4,0.2-0.8-0.2-0.8-0.6v-2.6c0-0.4,0-1.1,0.4-1.8l7-10l-6.1,0
			C120.4,13.8,120.1,13.5,120.1,13.1"/>
		<path fill-rule="evenodd" clip-rule="evenodd" fill="#333333" d="M77.8,29.3h-3.5c-0.3,0-0.6-0.3-0.6-0.6l0-18.1
			c0-0.4,0.3-0.7,0.7-0.7l3.3,0c0.3,0,0.6,0.3,0.6,0.6v2.4h0.1c0.9-2.3,2.5-3.3,4.6-3.3c2.2,0,3.6,1.1,4.6,3.3
			c0.9-2.3,2.8-3.3,4.9-3.3c1.5,0,3.1,0.6,4.1,2c1.1,1.5,0.9,3.7,0.9,5.7l0,11.4c0,0.4-0.3,0.7-0.7,0.7h-3.5c-0.4,0-0.6-0.3-0.6-0.6
			l0-9.6c0-0.8,0.1-2.7-0.1-3.4c-0.3-1.2-1.1-1.6-2.1-1.6c-0.9,0-1.7,0.6-2.1,1.5C87.9,16.5,88,18,88,19v9.6c0,0.4-0.3,0.7-0.7,0.7
			h-3.5c-0.4,0-0.6-0.3-0.6-0.6l0-9.6c0-2,0.3-5-2.2-5c-2.5,0-2.4,2.9-2.4,5l0,9.6C78.5,29,78.2,29.3,77.8,29.3"/>
		<path fill-rule="evenodd" clip-rule="evenodd" fill="#333333" d="M143,9.5c5.2,0,8.1,4.5,8.1,10.2c0,5.5-3.1,9.9-8.1,9.9
			c-5.1,0-7.9-4.5-7.9-10.1C135,13.9,137.9,9.5,143,9.5 M143,13.2c-2.6,0-2.8,3.5-2.8,5.7c0,2.2,0,6.9,2.7,6.9
			c2.7,0,2.9-3.8,2.9-6.1c0-1.5-0.1-3.3-0.5-4.8C144.9,13.7,144.1,13.2,143,13.2z"/>
		<path fill-rule="evenodd" clip-rule="evenodd" fill="#333333" d="M157.8,29.3h-3.5c-0.4,0-0.6-0.3-0.6-0.6l0-18.1
			c0-0.3,0.3-0.6,0.7-0.6l3.3,0c0.3,0,0.6,0.2,0.6,0.5v2.8h0.1c1-2.5,2.4-3.7,4.8-3.7c1.6,0,3.1,0.6,4.1,2.1
			c0.9,1.4,0.9,3.9,0.9,5.6v11.4c0,0.3-0.3,0.6-0.7,0.6h-3.5c-0.3,0-0.6-0.3-0.6-0.6v-9.8c0-2,0.2-4.9-2.2-4.9c-0.9,0-1.6,0.6-2,1.4
			c-0.5,1.1-0.6,2.2-0.6,3.4v9.7C158.5,29,158.2,29.3,157.8,29.3"/>
		<g>
			<path fill-rule="evenodd" clip-rule="evenodd" fill="#333333" d="M110.9,20.6c0,1.4,0,2.5-0.7,3.7c-0.6,1-1.5,1.6-2.4,1.6
				c-1.4,0-2.1-1-2.1-2.6c0-3,2.7-3.5,5.2-3.5V20.6 M114.4,29.2c-0.2,0.2-0.6,0.2-0.8,0.1c-1.2-1-1.4-1.4-2-2.3
				c-1.9,2-3.3,2.6-5.8,2.6c-3,0-5.3-1.8-5.3-5.5c0-2.9,1.5-4.8,3.8-5.8c1.9-0.8,4.6-1,6.6-1.2v-0.5c0-0.8,0.1-1.8-0.4-2.6
				c-0.4-0.6-1.3-0.9-2-0.9c-1.3,0-2.5,0.7-2.8,2.1c-0.1,0.3-0.3,0.6-0.6,0.6l-3.4-0.4c-0.3-0.1-0.6-0.3-0.5-0.7
				c0.8-4.1,4.5-5.4,7.9-5.4c1.7,0,4,0.5,5.3,1.8c1.7,1.6,1.5,3.7,1.5,6.1v5.5c0,1.7,0.7,2.4,1.3,3.3c0.2,0.3,0.3,0.7,0,0.9
				C116.4,27.5,115.1,28.6,114.4,29.2L114.4,29.2z"/>
			<path fill-rule="evenodd" clip-rule="evenodd" fill="#333333" d="M64.6,20.6c0,1.4,0,2.5-0.7,3.7c-0.6,1-1.5,1.6-2.4,1.6
				c-1.4,0-2.1-1-2.1-2.6c0-3,2.7-3.5,5.2-3.5V20.6 M68.2,29.2c-0.2,0.2-0.6,0.2-0.8,0.1c-1.2-1-1.4-1.4-2-2.3
				c-1.9,2-3.3,2.6-5.8,2.6c-3,0-5.3-1.8-5.3-5.5c0-2.9,1.5-4.8,3.8-5.8c1.9-0.8,4.6-1,6.6-1.2v-0.5c0-0.8,0.1-1.8-0.4-2.6
				c-0.4-0.6-1.3-0.9-2-0.9c-1.3,0-2.5,0.7-2.8,2.1c-0.1,0.3-0.3,0.6-0.6,0.6l-3.4-0.4c-0.3-0.1-0.6-0.3-0.5-0.7
				c0.8-4.1,4.5-5.4,7.9-5.4c1.7,0,4,0.5,5.3,1.8c1.7,1.6,1.5,3.7,1.5,6.1v5.5c0,1.7,0.7,2.4,1.3,3.3c0.2,0.3,0.3,0.7,0,0.9
				C70.2,27.5,68.9,28.6,68.2,29.2L68.2,29.2z"/>
		</g>
	</g>
</g>
</svg>
