<?xml version="1.0" encoding="UTF-8" standalone="no"?>
<svg width="134px" height="32px" viewBox="0 0 134 32" version="1.1" xmlns="http://www.w3.org/2000/svg" xmlns:xlink="http://www.w3.org/1999/xlink" xmlns:sketch="http://www.bohemiancoding.com/sketch/ns">
    <!-- Generator: Sketch 3.5.2 (25235) - http://www.bohemiancoding.com/sketch -->
    <title>short mark worker</title>
    <desc>Created with Sketch.</desc>
    <defs></defs>
    <g id="Slices" stroke="none" stroke-width="1" fill="none" fill-rule="evenodd" sketch:type="MSPage">
        <g id="Logotype---Future" sketch:type="MSArtboardGroup" transform="translate(-1996.000000, -418.000000)">
            <g id="short-mark-worker" sketch:type="MSLayerGroup" transform="translate(1996.000000, 418.000000)">
                <g id="Amazon-on-light-2" transform="translate(0.000000, 5.616883)" fill="#FFFFFF" sketch:type="MSShapeGroup">
                    <path d="M44.7392314,17.3989986 C40.5499859,20.4890791 34.4763945,22.1360652 29.243911,22.1360652 C21.9135019,22.1360652 15.3114658,19.4233822 10.3172227,14.9131065 C9.92309103,14.5594889 10.2727453,14.0746409 10.7435015,14.3498725 C16.1367203,17.4870727 22.8004083,19.3740607 29.6842816,19.3740607 C34.32843,19.3740607 39.4327656,18.4136124 44.1306393,16.419174 C44.8387552,16.119722 45.4336959,16.8877283 44.7392314,17.3989986" id="Fill-2"></path>
                    <path d="M46.4829669,15.4077748 C45.9465955,14.7216774 42.9401854,15.0841024 41.5891284,15.2461588 C41.1813452,15.2928381 41.1166107,14.9361379 41.4860817,14.6785211 C43.8856611,12.9932228 47.815088,13.4785112 48.2713119,14.0435067 C48.7314992,14.610704 48.1497697,18.5524613 45.9021181,20.4328438 C45.5573079,20.7208462 45.2279107,20.5671568 45.3798385,20.1862362 C45.8875859,18.922813 47.0184576,16.0956337 46.4829669,15.4077748" id="Fill-3"></path>
                    <path d="M41.6854374,2.77649263 L41.6854374,1.13875435 C41.6880797,0.890385326 41.8730353,0.725246349 42.1007069,0.726127091 L49.4368408,0.725246349 C49.671118,0.725246349 49.8591562,0.894348662 49.8591562,1.13611212 L49.8591562,2.54265584 C49.8591562,2.77649263 49.6583472,3.08166946 49.3064911,3.57180194 L45.5065332,8.99936965 C46.9170402,8.96369963 48.4120984,9.17375641 49.691375,9.8959642 C49.9811389,10.0575802 50.0590845,10.2989033 50.0806626,10.5349419 L50.0806626,12.2818921 C50.0806626,12.5223345 49.8168807,12.799768 49.5412087,12.658409 C47.2825478,11.4729313 44.2853855,11.3417009 41.7876034,12.6698586 C41.5335096,12.8072543 41.2644431,12.5311419 41.2644431,12.292461 L41.2644431,10.6296216 C41.2644431,10.3640782 41.2736909,9.91049643 41.5396748,9.5049151 L45.9425001,3.18911988 L42.1086336,3.18823914 C41.8756775,3.18823914 41.6880797,3.01825609 41.6854374,2.77649263" id="Fill-4"></path>
                    <path d="M14.9241158,12.9998724 L12.6914368,12.9998724 C12.4787378,12.9853401 12.307874,12.825926 12.292461,12.6242362 L12.292461,1.16799496 C12.292461,0.936360017 12.488426,0.753606216 12.7231435,0.753606216 L14.8021331,0.753606216 C15.0214377,0.765055852 15.1945033,0.9306352 15.2090355,1.1389305 L15.2090355,2.63486944 L15.2495496,2.63486944 C15.7916459,1.18737126 16.8128653,0.513163866 18.1899042,0.513163866 C19.5832368,0.513163866 20.4582532,1.18737126 21.0853409,2.63486944 C21.6243545,1.18737126 22.8534289,0.513163866 24.1657333,0.513163866 C25.1046034,0.513163866 26.1249421,0.897607404 26.7529106,1.76689898 C27.4583843,2.7313106 27.3135024,4.13124876 27.3135024,5.35724052 L27.3126216,12.5872451 C27.3126216,12.8144763 27.1184182,12.9998724 26.8814988,12.9998724 L24.6527832,12.9998724 C24.4286345,12.9853401 24.2516056,12.8087515 24.2516056,12.5890066 L24.2516056,6.51673632 C24.2516056,6.03188829 24.2930004,4.8287958 24.1908344,4.37081037 C24.0208514,3.59619847 23.5219115,3.38349947 22.8767685,3.38349947 C22.3346723,3.38349947 21.7714383,3.74284188 21.5424456,4.32192923 C21.3134529,4.89969546 21.3337099,5.86454746 21.3337099,6.51673632 L21.3337099,12.5872451 C21.3337099,12.8144763 21.1403872,12.9998724 20.9056697,12.9998724 L18.6738715,12.9998724 C18.4497228,12.9853401 18.2726938,12.8087515 18.2726938,12.5890066 L18.2726938,6.51673632 C18.2726938,5.24054231 18.4805488,3.35663686 16.8960953,3.35663686 C15.2922656,3.35663686 15.3539175,5.18857858 15.3539175,6.51673632 L15.3539175,12.5872451 C15.3539175,12.8144763 15.1605948,12.9998724 14.9241158,12.9998724" id="Fill-5"></path>
                    <path d="M56.1956489,2.85109141 C54.5504243,2.85109141 54.4451757,5.09257779 54.4451757,6.48987372 C54.4451757,7.88981187 54.4244783,10.8781668 56.1753918,10.8781668 C57.9047272,10.8781668 57.988838,8.46933959 57.988838,6.99674028 C57.988838,6.03188829 57.9465624,4.87503471 57.6545967,3.95950422 C57.4053469,3.16331417 56.9046455,2.85109141 56.1956489,2.85109141 M56.1753918,0.513163866 C59.4865384,0.513163866 61.2797275,3.35663686 61.2797275,6.97296027 C61.2797275,10.467301 59.300702,13.2420762 56.1753918,13.2420762 C52.9232549,13.2420762 51.1534054,10.3950802 51.1534054,6.85317947 C51.1534054,3.28485645 52.9474753,0.513163866 56.1753918,0.513163866" id="Fill-6"></path>
                    <path d="M65.5768639,13.0010614 L63.3507905,13.0010614 C63.1284033,12.9856484 62.9526954,12.8095002 62.9526954,12.5884341 L62.9487321,1.12778912 C62.9672277,0.919053453 63.1526237,0.753033735 63.3776531,0.753033735 L65.4465142,0.753033735 C65.6424791,0.762281517 65.8040951,0.895713811 65.8432881,1.07450428 L65.8432881,2.82629854 L65.8868848,2.82629854 C66.5113303,1.26122141 67.3872274,0.513031755 68.9267631,0.513031755 C69.9277254,0.513031755 70.9084308,0.874576022 71.5315552,1.86188692 C72.115927,2.77961926 72.115927,4.32179712 72.115927,5.42932919 L72.115927,12.6399575 C72.0899451,12.8416472 71.9080721,13.0010614 71.6861253,13.0010614 L69.4503637,13.0010614 C69.2425088,12.9865291 69.075168,12.8341609 69.0522687,12.6399575 L69.0522687,6.41840157 C69.0522687,5.16642794 69.1971506,3.33272474 67.6558535,3.33272474 C67.1141976,3.33272474 66.6156981,3.69382863 66.3651272,4.24957634 C66.0520237,4.94712338 66.0097482,5.6464319 66.0097482,6.41840157 L66.0097482,12.5875534 C66.0057848,12.8147846 65.814664,13.0010614 65.5768639,13.0010614" id="Fill-7"></path>
                    <path d="M38.0865087,12.9707198 C37.9394249,13.1032714 37.7254048,13.1129595 37.5607062,13.0226836 C36.8191221,12.4066051 36.6865705,12.1234468 36.2814296,11.5359924 C35.0554378,12.7853238 34.187027,13.1569966 32.6003717,13.1569966 C30.722191,13.1569966 29.260601,11.9979412 29.260601,9.67806882 C29.260601,7.86550341 30.2399852,6.63334646 31.6403637,6.0304791 C32.8518233,5.50027289 34.542406,5.40251062 35.8379764,5.25586721 L35.8379764,4.96698409 C35.8379764,4.43545677 35.876729,3.81013051 35.5636255,3.34950286 C35.2949994,2.9399582 34.7713987,2.76865403 34.3125326,2.76865403 C33.4612962,2.76865403 32.7047395,3.20638241 32.517582,4.11266512 C32.4779486,4.31083189 32.332186,4.50899866 32.1300559,4.51956756 L29.9678362,4.28661151 C29.7842016,4.24433593 29.5820715,4.09857326 29.6335949,3.82025904 C30.1312137,1.19388875 32.502169,0.400781288 34.6247553,0.400781288 C35.71159,0.400781288 37.1326659,0.692306628 37.9878656,1.51271707 C39.0729388,2.5264502 38.9676902,3.87970907 38.9676902,5.35451022 L38.9676902,8.83167652 C38.9676902,9.87887782 39.4036571,10.3368632 39.811,10.9022991 C39.9532397,11.1022274 39.9858271,11.346633 39.8035137,11.4941572 C39.3472897,11.8768393 38.53965,12.5805515 38.0922335,12.9773254 L38.0865087,12.9707198 Z M35.8379764,7.52906027 C35.8379764,8.39791147 35.8573527,9.12364223 35.4196243,9.8956119 C35.0633645,10.5244611 34.498369,10.9106661 33.872162,10.9106661 C33.0187237,10.9106661 32.5153801,10.2584773 32.5153801,9.29450603 C32.5153801,7.39034353 34.2218162,7.04421223 35.8379764,7.04421223 L35.8379764,7.52906027 Z" id="Fill-8"></path>
                    <path d="M8.82617189,12.9707198 C8.67952848,13.1032714 8.46682947,13.1129595 8.30080976,13.0226836 C7.55878529,12.4066051 7.42711448,12.1234468 7.02065241,11.5359924 C5.79642213,12.7853238 4.92757092,13.1569966 3.34047526,13.1569966 C1.46097352,13.1569966 0.000264222363,11.9979412 0.000264222363,9.67806882 C0.000264222363,7.86550341 0.980088818,6.63334646 2.38090771,6.0304791 C3.59236725,5.50027289 5.28206926,5.40251062 6.57763958,5.25586721 L6.57763958,4.96698409 C6.57763958,4.43545677 6.62035553,3.81013051 6.30549054,3.34950286 C6.03598373,2.9399582 5.51194271,2.76865403 5.05307654,2.76865403 C4.20184016,2.76865403 3.44660458,3.20638241 3.2590067,4.11266512 C3.2215752,4.31083189 3.07361067,4.50899866 2.87236131,4.51956756 L0.707499414,4.28573076 C0.525626354,4.24433593 0.323055876,4.09857326 0.374138866,3.82025904 C0.87175765,1.19388875 3.24051113,0.400781288 5.3652993,0.400781288 C6.4530147,0.400781288 7.87144842,0.692306628 8.72752887,1.51271707 C9.81348278,2.5264502 9.70911495,3.87970907 9.70911495,5.35451022 L9.70911495,8.83167652 C9.70911495,9.87887782 10.1433204,10.3368632 10.5519843,10.900978 C10.6920221,11.1022274 10.7254903,11.3457523 10.5440576,11.4941572 C10.0878337,11.8768393 9.27623065,12.5805515 8.83189671,12.9773254 L8.82617189,12.9707198 Z M6.57763958,7.52994101 C6.57763958,8.39791147 6.59745626,9.12364223 6.1592875,9.89649264 C5.80390843,10.5244611 5.23979368,10.9106661 4.61578853,10.9106661 C3.75838697,10.9106661 3.25636448,10.2584773 3.25636448,9.29450603 C3.25636448,7.39034353 4.96456205,7.04421223 6.57763958,7.04421223 L6.57763958,7.52994101 Z" id="Fill-9"></path>
                </g>
                <path d="M106.785469,31.5027642 L105.197969,25.3094237 L103.620912,31.5027642 L102.889826,31.5027642 L100.696569,24.2650155 L101.364991,24.2650155 L103.265813,30.8030108 L104.84287,24.5052294 L105.594844,24.5052294 L107.161456,30.8238989 L109.104055,24.2650155 L109.751588,24.2650155 L107.516555,31.5027642 L106.785469,31.5027642 Z M112.926589,31.6594255 C112.160686,31.6594255 111.565379,31.413992 111.140651,30.9231177 C110.715923,30.4322434 110.503562,29.7481629 110.503562,28.8708556 C110.503562,27.9935484 110.715923,27.3112085 111.140651,26.8238156 C111.565379,26.3364227 112.160686,26.0927299 112.926589,26.0927299 C113.692492,26.0927299 114.287799,26.3364227 114.712527,26.8238156 C115.137255,27.3112085 115.349616,27.9935484 115.349616,28.8708556 C115.349616,29.7481629 115.137255,30.4322434 114.712527,30.9231177 C114.287799,31.413992 113.692492,31.6594255 112.926589,31.6594255 L112.926589,31.6594255 Z M112.926589,31.1163332 C114.131146,31.1163332 114.733415,30.3678482 114.733415,28.8708556 C114.733415,27.3808258 114.131146,26.6358221 112.926589,26.6358221 C111.722032,26.6358221 111.119763,27.3808258 111.119763,28.8708556 C111.119763,30.3678482 111.722032,31.1163332 112.926589,31.1163332 L112.926589,31.1163332 Z M116.707347,31.5027642 L116.707347,26.2493911 L117.229551,26.2493911 L117.292215,27.0118091 C117.5568,26.7193733 117.816159,26.5122344 118.070299,26.3903862 C118.32444,26.268538 118.611649,26.2076148 118.931936,26.2076148 C119.050303,26.2076148 119.193037,26.2180587 119.360144,26.238947 L119.360144,26.7715952 C119.179112,26.7576697 119.01549,26.750707 118.869272,26.750707 C118.548985,26.750707 118.265257,26.8098896 118.018079,26.9282564 C117.770901,27.0466233 117.53243,27.2380962 117.302659,27.5026809 L117.302659,31.5027642 L116.707347,31.5027642 Z M120.300111,31.5027642 L120.300111,23.7741437 L120.895424,23.7741437 L120.895424,28.5888654 L123.496,26.2493911 L124.310638,26.2493911 L121.522068,28.7350826 L124.488188,31.5027642 L123.631773,31.5027642 L120.895424,28.9335201 L120.895424,31.5027642 L120.300111,31.5027642 Z M125.657925,28.9752964 C125.664888,29.7063858 125.825029,30.2459913 126.138353,30.5941291 C126.451677,30.9422669 126.935581,31.1163332 127.59008,31.1163332 C128.188877,31.1163332 128.763296,30.9944868 129.313353,30.7507903 L129.313353,31.2416622 C128.818998,31.5201724 128.230654,31.6594255 127.548304,31.6594255 C126.719736,31.6594255 126.096578,31.424436 125.678813,30.9544499 C125.261048,30.4844639 125.052168,29.7864581 125.052168,28.8604115 C125.052168,27.9831043 125.262788,27.3025051 125.684035,26.8185935 C126.105282,26.334682 126.695367,26.0927299 127.454307,26.0927299 C128.087918,26.0927299 128.573563,26.2737588 128.911256,26.6358221 C129.24895,26.9978854 129.417794,27.516603 129.417794,28.1919903 C129.417794,28.5053143 129.396906,28.7664138 129.35513,28.9752964 L125.657925,28.9752964 Z M127.402087,26.625378 C126.301971,26.625378 125.72059,27.2485353 125.657925,28.4948687 L128.832926,28.4948687 C128.839888,28.3973901 128.84337,28.2825063 128.84337,28.150214 C128.84337,27.6488955 128.721523,27.269431 128.477827,27.0118091 C128.23413,26.7541871 127.875554,26.625378 127.402087,26.625378 L127.402087,26.625378 Z M130.733749,31.5027642 L130.733749,26.2493911 L131.255953,26.2493911 L131.318617,27.0118091 C131.583202,26.7193733 131.842561,26.5122344 132.096701,26.3903862 C132.350842,26.268538 132.638051,26.2076148 132.958338,26.2076148 C133.076705,26.2076148 133.219439,26.2180587 133.386545,26.238947 L133.386545,26.7715952 C133.205514,26.7576697 133.041891,26.750707 132.895674,26.750707 C132.575387,26.750707 132.291659,26.8098896 132.044481,26.9282564 C131.797303,27.0466233 131.558832,27.2380962 131.329061,27.5026809 L131.329061,31.5027642 L130.733749,31.5027642 Z" id="Worker" fill="#FFFFFF" sketch:type="MSShapeGroup"></path>
                <path d="M92.1438733,18.7247597 L92.1438733,10.4550191 C92.1438733,9.40719094 91.9584911,8.64551191 91.5877212,8.16995915 C91.2169512,7.69440638 90.6285642,7.45663357 89.8225426,7.45663357 C88.2911015,7.45663357 86.8322242,7.96441958 85.445867,8.98000684 C85.4942283,9.36689723 85.5184086,9.74572172 85.5184086,10.1164917 L85.5184086,18.7247597 L84.1401185,18.7247597 L84.1401185,10.4550191 C84.1401185,9.40719094 83.9547363,8.64551191 83.5839663,8.16995915 C83.2131964,7.69440638 82.6248094,7.45663357 81.8187878,7.45663357 C80.3195875,7.45663357 78.8848905,7.94829939 77.5146537,8.93164579 L77.5146537,18.7247597 L76.1363636,18.7247597 L76.1363636,6.56195402 L77.34539,6.56195402 L77.4904732,7.89188307 C78.2158927,7.34378836 78.9775717,6.92466339 79.7755331,6.63449561 C80.5734946,6.34432782 81.3512938,6.1992461 82.1089541,6.1992461 C83.6242748,6.1992461 84.6398468,6.81987345 85.1557007,8.06114677 C85.913361,7.46469076 86.7193706,7.00526532 87.5737535,6.68285666 C88.4281364,6.36044801 89.2744464,6.1992461 90.112709,6.1992461 C91.2250188,6.1992461 92.0713288,6.51358982 92.6516644,7.1422867 C93.232,7.77098358 93.5221634,8.68177436 93.5221634,9.87468639 L93.5221634,18.7247597 L92.1438733,18.7247597 Z M102.468959,18.4587739 C101.791901,18.7328213 100.977831,18.8698429 100.026726,18.8698429 C99.07562,18.8698429 98.3502114,18.6159499 97.850478,18.1081562 C97.3507446,17.6003626 97.1008816,16.8628639 97.1008816,15.8956379 L97.1008816,7.77098043 L94.827912,7.77098043 L94.827912,6.8037593 L97.1492427,6.58613455 L97.3426869,3.0315969 L98.4791717,3.0315969 L98.4791717,6.56195402 L102.348056,6.56195402 L102.348056,7.77098043 L98.4791717,7.77098043 L98.4791717,15.8230963 C98.4791717,16.4840341 98.6202234,16.9515196 98.902331,17.225567 C99.1844385,17.4996143 99.6559541,17.6366359 100.316892,17.6366359 C100.97783,17.6366359 101.695178,17.5399148 102.468959,17.3464696 L102.468959,18.4587739 Z M112.479698,18.7247597 L112.334614,17.3948307 C110.803173,18.523261 109.215334,19.0874676 107.57105,19.0874676 C106.410379,19.0874676 105.519739,18.7731239 104.899102,18.144427 C104.278465,17.5157302 103.968152,16.5968793 103.968152,15.3878468 L103.968152,6.56195402 L105.346442,6.56195402 L105.346442,14.8075141 C105.346442,15.8714627 105.547944,16.6412018 105.950955,17.1167546 C106.353966,17.5923074 106.990713,17.8300802 107.861217,17.8300802 C108.651118,17.8300802 109.392647,17.7091787 110.085825,17.4673723 C110.779004,17.2255658 111.520533,16.8306211 112.310434,16.2825264 L112.310434,6.56195402 L113.688724,6.56195402 L113.688724,18.7247597 L112.479698,18.7247597 Z M116.493665,18.7247597 L116.493665,6.56195402 L117.702692,6.56195402 L117.847775,8.32713258 C118.460351,7.65007441 119.060828,7.17049872 119.649224,6.88839115 C120.23762,6.60628358 120.902578,6.46523191 121.644118,6.46523191 C121.918165,6.46523191 122.248629,6.48941219 122.635519,6.53777349 L122.635519,7.77098043 C122.216388,7.73873957 121.837564,7.72261938 121.499035,7.72261938 C120.757495,7.72261938 120.100597,7.859641 119.528322,8.13368836 C118.956046,8.40773571 118.40393,8.85104096 117.871955,9.46361741 L117.871955,18.7247597 L116.493665,18.7247597 Z M123.844546,18.7247597 L123.844546,0.831168831 L125.222836,0.831168831 L125.222836,11.9783923 L131.243787,6.56195402 L133.129869,6.56195402 L126.673668,12.3169197 L133.540938,18.7247597 L131.558134,18.7247597 L125.222836,12.7763498 L125.222836,18.7247597 L123.844546,18.7247597 Z" id="mturk" fill="#DC8C1B" sketch:type="MSShapeGroup"></path>
            </g>
        </g>
    </g>
</svg>